<svg width="55" height="63" viewBox="0 0 55 63" fill="none" xmlns="http://www.w3.org/2000/svg">
<path d="M1 1.39271C11.3198 0.258233 36.1676 2.02104 53 18.1481" stroke="black" stroke-width="2"/>
<line y1="-1" x2="67.9554" y2="-1" transform="matrix(-0.755997 0.654575 -0.752136 -0.659008 52.5491 16.97)" stroke="black" stroke-width="2"/>
<line x1="2.15027" y1="1" x2="2.15027" y2="62" stroke="black" stroke-width="2"/>
<path d="M1.99969 10.5406C10.7495 22.4038 36.492 10.3471 44.4858 24.5707" stroke="black" stroke-width="2"/>
<path d="M17.1069 21.636C18.9298 23.9039 22.0269 29.3888 19.8321 33.185C17.6373 36.9812 14.9975 40.1181 13.6149 41.1369C12.5289 42.4785 9.18961 44.2988 7.21646 41.4481C5.24331 38.5975 9.42414 37.0258 12.3644 38.1393L19.1899 40.7243" stroke="black" stroke-width="2"/>
<path d="M19.3168 32.9899C18.5574 34.511 16.4027 35.3446 14.3897 34.5823C12.3766 33.8199 11.6071 31.8788 12.3665 30.3576C13.1259 28.8365 15.2806 28.0029 17.2936 28.7653C19.3066 29.5276 20.0762 31.4687 19.3168 32.9899Z" stroke="black" stroke-width="2"/>
</svg>
